<?xml version="1.0" encoding="UTF-8"?>
<!-- Do not edit this file with editors other than draw.io -->
<!DOCTYPE svg PUBLIC "-//W3C//DTD SVG 1.1//EN" "http://www.w3.org/Graphics/SVG/1.1/DTD/svg11.dtd">
<svg xmlns="http://www.w3.org/2000/svg" style="background: #ffffff; background-color: light-dark(#ffffff, var(--ge-dark-color, #121212)); color-scheme: light dark;" xmlns:xlink="http://www.w3.org/1999/xlink" version="1.1" width="667px" height="656px" viewBox="0 0 667 656" content="&lt;mxfile host=&quot;Electron&quot; agent=&quot;Mozilla/5.0 (Windows NT 10.0; Win64; x64) AppleWebKit/537.36 (KHTML, like Gecko) draw.io/29.3.0 Chrome/140.0.7339.249 Electron/38.7.2 Safari/537.36&quot; version=&quot;29.3.0&quot; scale=&quot;1&quot; border=&quot;0&quot;&gt;&#10;  &lt;diagram name=&quot;Page-1&quot; id=&quot;0KSrtN_RpnZpxKqCqt_n&quot;&gt;&#10;    &lt;mxGraphModel dx=&quot;2578&quot; dy=&quot;1490&quot; grid=&quot;1&quot; gridSize=&quot;10&quot; guides=&quot;1&quot; tooltips=&quot;1&quot; connect=&quot;1&quot; arrows=&quot;1&quot; fold=&quot;1&quot; page=&quot;1&quot; pageScale=&quot;1&quot; pageWidth=&quot;720&quot; pageHeight=&quot;720&quot; math=&quot;0&quot; shadow=&quot;0&quot;&gt;&#10;      &lt;root&gt;&#10;        &lt;mxCell id=&quot;0&quot; /&gt;&#10;        &lt;mxCell id=&quot;1&quot; parent=&quot;0&quot; /&gt;&#10;        &lt;mxCell id=&quot;Wjjl39C8ZZD6XrusbY_V-1&quot; parent=&quot;1&quot; style=&quot;ellipse;whiteSpace=wrap;html=1;aspect=fixed;fillColor=none;strokeWidth=7;&quot; value=&quot;&quot; vertex=&quot;1&quot;&gt;&#10;          &lt;mxGeometry height=&quot;600&quot; width=&quot;600&quot; x=&quot;80&quot; y=&quot;80&quot; as=&quot;geometry&quot; /&gt;&#10;        &lt;/mxCell&gt;&#10;        &lt;mxCell id=&quot;Wjjl39C8ZZD6XrusbY_V-2&quot; parent=&quot;1&quot; style=&quot;ellipse;whiteSpace=wrap;html=1;aspect=fixed;fillColor=#f8cecc;strokeWidth=7;strokeColor=default;&quot; value=&quot;&quot; vertex=&quot;1&quot;&gt;&#10;          &lt;mxGeometry height=&quot;120&quot; width=&quot;120&quot; x=&quot;430&quot; y=&quot;31&quot; as=&quot;geometry&quot; /&gt;&#10;        &lt;/mxCell&gt;&#10;        &lt;mxCell id=&quot;Wjjl39C8ZZD6XrusbY_V-3&quot; parent=&quot;1&quot; style=&quot;ellipse;whiteSpace=wrap;html=1;aspect=fixed;fillColor=#dae8fc;strokeWidth=7;strokeColor=default;&quot; value=&quot;&quot; vertex=&quot;1&quot;&gt;&#10;          &lt;mxGeometry height=&quot;120&quot; width=&quot;120&quot; x=&quot;20&quot; y=&quot;361&quot; as=&quot;geometry&quot; /&gt;&#10;        &lt;/mxCell&gt;&#10;        &lt;mxCell id=&quot;Wjjl39C8ZZD6XrusbY_V-4&quot; parent=&quot;1&quot; style=&quot;ellipse;whiteSpace=wrap;html=1;aspect=fixed;fillColor=#d5e8d4;strokeWidth=7;strokeColor=default;&quot; value=&quot;&quot; vertex=&quot;1&quot;&gt;&#10;          &lt;mxGeometry height=&quot;120&quot; width=&quot;120&quot; x=&quot;550&quot; y=&quot;521&quot; as=&quot;geometry&quot; /&gt;&#10;        &lt;/mxCell&gt;&#10;        &lt;mxCell id=&quot;T_2ByTw7nsKkeOidii_L-2&quot; parent=&quot;1&quot; style=&quot;shape=image;verticalLabelPosition=bottom;labelBackgroundColor=default;verticalAlign=top;aspect=fixed;imageAspect=0;editableCssRules=.*;image=data:image/svg+xml,PHN2ZyB4bWxucz0iaHR0cDovL3d3dy53My5vcmcvMjAwMC9zdmciIHZpZXdCb3g9IjEuNDYyMTAzMzY2ODUxODA2NiAwLjAwMTA1OTI5Mzc0Njk0ODI0MjIgMTI1LjA3NjU0NTcxNTMzMjAzIDEyNy45OTgyMzc2MDk4NjMyOCIgd2lkdGg9IjEyNS4wNzY1NDU3MTUzMzIwMyIgaGVpZ2h0PSIxMjcuOTk4MjM3NjA5ODYzMjgiPjxwYXRoIGZpbGw9IiNlMTU5MTkiIGQ9Ik01Ny42NDYuMDA0Yy0yLjI2OS4wNjQtNC41MSAxLjE0My02LjM4NCAzLjIyMy0xLjAzIDEuMTQ2LTEuOTA1IDIuNTEtMi42MyAzLjg1NS0xLjg5IDMuNTQtMi4yNjIgNy41NDctMi45NjIgMTEuNDNsLTMuODUyIDIxLjgxYy0uMTQ4Ljg1Ni0uNTMyIDEuMjEtMS4zIDEuNDU1bC0yOC4yNjggOC45OGMtMi4wNi42NzMtNC4xMjUgMS41NDMtNS45NDcgMi43LTUuNTU4IDMuNTMtNi4zOCA5LjMzOC0yLjIwNyAxNC40MzggMS44NDIgMi4yNTYgNC4yMTYgMy44NDMgNi44NSA0Ljk5NmwxNy42MDMgNy44NDNjLjE0Ny4wOC4zMDQuMTMyLjQ2My4xNjJsMy43MTcgMi42ODJzLTMuNyA0MC45NDggMy4yNDYgNDMuNzgxYy0uMDYxLS4wMS0uNDEtLjA4Mi0uNDEtLjA4MnMuNzA0Ljc2MSAyLjYwMy41MzdjMS40NTQuMjcgMS4yNjIuMjI2LjA3NC0uMDEgMi41ODMtLjMzNCA3LjMzNy0yLjQ5NyAxNS41NzgtMTAuNzg0YTQ3LjM5NiA0Ny4zOTYgMCAwIDAgMS43NzYtMS42NzZsMTcuOC0xOS4yMTcgNC4xNjMgMS40NjVjLjE1LjIwNy4zNjcuMzQuNzE0LjQ0M2wxOS44MjMgNi4wMzFjMi43MDkuODM2IDUuMzg5IDEuNDQ4IDguMjc3IDEuMDI2IDUuMTU2LS43NTUgOC45NTEtNSA4LjktMTAuMTkyLS4wMi0yLjI4LS44Mi00LjMzOS0xLjg3LTYuMzI0bC0xMy4xMjgtMjQuODk4Yy0uNDE4LS43ODctLjQwNS0xLjI5Ni4xOTYtMmwyMi4wNTQtMjUuOTIyYzEuNDI4LTEuNzAzIDIuNzE3LTMuNTI5IDMuNDY1LTUuNjQ1IDEuNjQzLTQuNjctLjQ4Mi04LjM4Mi01LjMzLTkuMjg5LTIuMjI5LS4zOTgtNC40MjctLjE4OC02LjYuMzg1bC0zMS41OTcgOC4zOTVjLS45My4yNS0xLjM5LjA3NS0xLjg5NS0uNzcybC0xMi45LTIxLjQzNGMtLjk3NS0xLjYxNS0yLjE0LTMuMTk0LTMuNDc3LTQuNTI3QzYyLjIxMi44OSA1OS45MTUtLjA1OSA1Ny42NDYuMDA0em0uOTQ0IDE5LjczNmMuNTEuMzU4Ljc2OC43MjcgMS4wMSAxLjEyNWwxMy44OCAyMy4xM2MuMzgyLjYyOC43MjUuODUgMS40ODUuNjQ4bDI0LjQ0My02LjQ5NyA1Ljg4NS0xLjU0Yy0uMDg3LjQ5My0uMzAyLjc5LS41MzcgMS4wNjhsLTIwLjE2IDIzLjY3MmMtLjU3LjY4OC0uNjIzIDEuMTctLjE5NCAxLjk3NmwxMi43NDMgMjQuMTYuNTg1IDEuMjM3LS4wMTUuMDItMjIuNzI3LTYuMjY0LS4wMDYtLjAxOC00LjI5OC0xLjIwNS0yNS40OTMgMjguMjU2IDQuNjYzLTM3LjE1LTQuMTg0LTEuODIuMDA4LS4wMDctMjMuNjc0LTkuNGMuNDU0LS40MTMuODYtLjU4NSAxLjI4NS0uNzE3bDI4Ljc3Ny05LjA5NmMuNjc2LS4yMSAxLjA2MS0uNDcgMS4xMjUtMS4yNDJsLjQwMy0yLjM1NSAzLjg3NS0yMS44MDcgMS4xMi02LjE3NHoiLz48L3N2Zz4=;&quot; value=&quot;&quot; vertex=&quot;1&quot;&gt;&#10;          &lt;mxGeometry height=&quot;368.64&quot; width=&quot;360&quot; x=&quot;200&quot; y=&quot;200&quot; as=&quot;geometry&quot; /&gt;&#10;        &lt;/mxCell&gt;&#10;      &lt;/root&gt;&#10;    &lt;/mxGraphModel&gt;&#10;  &lt;/diagram&gt;&#10;&lt;/mxfile&gt;&#10;"><defs/><rect fill="#ffffff" width="100%" height="100%" x="0" y="0" style="fill: light-dark(#ffffff, var(--ge-dark-color, #121212));"/><g><g data-cell-id="0"><g data-cell-id="1"><g data-cell-id="Wjjl39C8ZZD6XrusbY_V-1"><g transform="translate(0.5,0.5)"><ellipse cx="363" cy="352" rx="300" ry="300" fill="none" stroke="#000000" stroke-width="7" pointer-events="all" style="stroke: light-dark(rgb(0, 0, 0), rgb(255, 255, 255));"/></g></g><g data-cell-id="Wjjl39C8ZZD6XrusbY_V-2"><g transform="translate(0.5,0.5)"><ellipse cx="473" cy="63" rx="60" ry="60" fill="#f8cecc" stroke="#000000" stroke-width="7" pointer-events="all" style="fill: rgb(248, 206, 204); stroke: light-dark(rgb(0, 0, 0), rgb(255, 255, 255));"/></g></g><g data-cell-id="Wjjl39C8ZZD6XrusbY_V-3"><g transform="translate(0.5,0.5)"><ellipse cx="63" cy="393" rx="60" ry="60" fill="#dae8fc" stroke="#000000" stroke-width="7" pointer-events="all" style="fill: rgb(218, 232, 252); stroke: light-dark(rgb(0, 0, 0), rgb(255, 255, 255));"/></g></g><g data-cell-id="Wjjl39C8ZZD6XrusbY_V-4"><g transform="translate(0.5,0.5)"><ellipse cx="593" cy="553" rx="60" ry="60" fill="#d5e8d4" stroke="#000000" stroke-width="7" pointer-events="all" style="fill: rgb(213, 232, 212); stroke: light-dark(rgb(0, 0, 0), rgb(255, 255, 255));"/></g></g><g data-cell-id="T_2ByTw7nsKkeOidii_L-2"><g><g><svg xmlns="http://www.w3.org/2000/svg" viewBox="1.4621033668518066 0.0010592937469482422 125.07654571533203 127.99823760986328" width="360" height="368.64" x="183" y="172" style="font-family: initial;"><path fill="#e15919" d="M57.646.004c-2.269.064-4.51 1.143-6.384 3.223-1.03 1.146-1.905 2.51-2.63 3.855-1.89 3.54-2.262 7.547-2.962 11.43l-3.852 21.81c-.148.856-.532 1.21-1.3 1.455l-28.268 8.98c-2.06.673-4.125 1.543-5.947 2.7-5.558 3.53-6.38 9.338-2.207 14.438 1.842 2.256 4.216 3.843 6.85 4.996l17.603 7.843c.147.08.304.132.463.162l3.717 2.682s-3.7 40.948 3.246 43.781c-.061-.01-.41-.082-.41-.082s.704.761 2.603.537c1.454.27 1.262.226.074-.01 2.583-.334 7.337-2.497 15.578-10.784a47.396 47.396 0 0 0 1.776-1.676l17.8-19.217 4.163 1.465c.15.207.367.34.714.443l19.823 6.031c2.709.836 5.389 1.448 8.277 1.026 5.156-.755 8.951-5 8.9-10.192-.02-2.28-.82-4.339-1.87-6.324l-13.128-24.898c-.418-.787-.405-1.296.196-2l22.054-25.922c1.428-1.703 2.717-3.529 3.465-5.645 1.643-4.67-.482-8.382-5.33-9.289-2.229-.398-4.427-.188-6.6.385l-31.597 8.395c-.93.25-1.39.075-1.895-.772l-12.9-21.434c-.975-1.615-2.14-3.194-3.477-4.527C62.212.89 59.915-.059 57.646.004zm.944 19.736c.51.358.768.727 1.01 1.125l13.88 23.13c.382.628.725.85 1.485.648l24.443-6.497 5.885-1.54c-.087.493-.302.79-.537 1.068l-20.16 23.672c-.57.688-.623 1.17-.194 1.976l12.743 24.16.585 1.237-.015.02-22.727-6.264-.006-.018-4.298-1.205-25.493 28.256 4.663-37.15-4.184-1.82.008-.007-23.674-9.4c.454-.413.86-.585 1.285-.717l28.777-9.096c.676-.21 1.061-.47 1.125-1.242l.403-2.355 3.875-21.807 1.12-6.174z"/></svg></g></g></g></g></g></g></svg>